<svg xmlns="http://www.w3.org/2000/svg" viewBox="0 0 19.4 19.2"><path d="M0 5.9h5.9V0H0v5.9zM1 1h3.9v3.9H1V1zM6.7 5.9h5.9V0H6.7v5.9zm1-4.9h3.9v3.9H7.7V1zM13.5 0v5.9h5.9V0h-5.9zm4.9 4.9h-3.9V1h3.9v3.9zM0 12.6h5.9V6.7H0v5.9zm1-4.9h3.9v3.9H1V7.7zM6.7 12.6h5.9V6.7H6.7v5.9zm1-4.9h3.9v3.9H7.7V7.7zM13.5 12.6h5.9V6.7h-5.9v5.9zm1-4.9h3.9v3.9h-3.9V7.7zM0 19.2h5.9v-5.9H0v5.9zm1-4.9h3.9v3.9H1v-3.9zM6.7 19.2h5.9v-5.9H6.7v5.9zm1-4.9h3.9v3.9H7.7v-3.9zM13.5 19.2h5.9v-5.9h-5.9v5.9zm1-4.9h3.9v3.9h-3.9v-3.9z"/></svg>