<svg xmlns="http://www.w3.org/2000/svg" viewBox="0 0 20.2 22.8"><path d="M18.7 7.7h-1.1c0-4.2-3.5-7.7-7.7-7.7S2.2 3.5 2.2 7.7h-.6C.7 7.7 0 8.4 0 9.3v6.4c0 .9.7 1.6 1.6 1.6h3.2c.9 0 1.6-.7 1.6-1.6V9.3c0-.9-.7-1.6-1.6-1.6H3.2a6.7 6.7 0 0 1 13.4 0h-1.1c-.9 0-1.6.7-1.6 1.6v6.4c0 .9.7 1.6 1.6 1.6h.5c-.7.9-1.7 1.5-3.2 2.1v-.2c0-.7-.6-1.3-1.3-1.3H9c-.7 0-1.3.6-1.3 1.3v2.4c0 .7.6 1.3 1.3 1.3h2.4c.7 0 1.3-.6 1.3-1.3v-1.2h.1c2.1-.7 3.4-1.7 4.3-3.1h1.5c.9 0 1.6-.7 1.6-1.6V9.3c0-.9-.7-1.6-1.5-1.6zM5.3 9.3v6.4c0 .3-.2.6-.6.6H1.6c-.4-.1-.6-.3-.6-.6V9.3c0-.3.2-.6.6-.6h3.2c.2 0 .5.3.5.6zm6.5 12.2c0 .2-.1.3-.3.3H9c-.2 0-.3-.1-.3-.3v-2.4c0-.2.1-.3.3-.3h2.4c.2 0 .3.1.3.3v2.4zm7.4-5.8c0 .3-.2.6-.6.6h-3.2c-.3 0-.6-.2-.6-.6V9.3c0-.3.2-.6.6-.6h3.2c.3 0 .6.2.6.6v6.4z"/></svg>