<?xml version="1.0" encoding="utf-8"?>
<!-- Generator: Adobe Illustrator 20.0.0, SVG Export Plug-In . SVG Version: 6.00 Build 0)  -->
<svg version="1.1" id="Layer_1" xmlns="http://www.w3.org/2000/svg" xmlns:xlink="http://www.w3.org/1999/xlink" x="0px" y="0px"
	 viewBox="0 0 322.9 284" style="enable-background:new 0 0 322.9 284;" xml:space="preserve">
<g>
	<path d="M307.4,232.5H15.5C7,232.5,0,225.5,0,217V15.5C0,7,7,0,15.5,0h291.9c8.5,0,15.5,7,15.5,15.5V217
		C322.9,225.5,316,232.5,307.4,232.5z M15.5,5C9.7,5,5,9.7,5,15.5V217c0,5.8,4.7,10.5,10.5,10.5h291.9c5.8,0,10.5-4.7,10.5-10.5
		V15.5c0-5.8-4.7-10.5-10.5-10.5H15.5z"/>
	<path d="M306.3,191.3H18.1c-1.4,0-2.5-1.1-2.5-2.5V23c0-1.4,1.1-2.5,2.5-2.5h288.1c1.4,0,2.5,1.1,2.5,2.5v165.8
		C308.8,190.2,307.7,191.3,306.3,191.3z M20.6,186.3h283.1V25.5H20.6V186.3z"/>
	<path d="M310.4,284H12.5C5.6,284,0,278.4,0,271.5v-11.1c0-6.9,5.6-12.5,12.5-12.5h297.9c6.9,0,12.5,5.6,12.5,12.5v11.1
		C322.9,278.4,317.3,284,310.4,284z M12.5,252.9c-4.1,0-7.5,3.4-7.5,7.5v11.1c0,4.1,3.4,7.5,7.5,7.5h297.9c4.1,0,7.5-3.4,7.5-7.5
		v-11.1c0-4.1-3.4-7.5-7.5-7.5H12.5z"/>
	<path d="M242.7,269.1h-158c-1.4,0-2.5-1.1-2.5-2.5s1.1-2.5,2.5-2.5h158c1.4,0,2.5,1.1,2.5,2.5S244.1,269.1,242.7,269.1z"/>
	<path d="M162.2,220.5c-5.9,0-10.7-4.8-10.7-10.7s4.8-10.7,10.7-10.7s10.7,4.8,10.7,10.7S168.1,220.5,162.2,220.5z M162.2,204.2
		c-3.1,0-5.7,2.5-5.7,5.7s2.5,5.7,5.7,5.7s5.7-2.5,5.7-5.7S165.3,204.2,162.2,204.2z"/>
</g>
</svg>
