<?xml version="1.0" encoding="utf-8"?>
<!-- Generator: Adobe Illustrator 20.0.0, SVG Export Plug-In . SVG Version: 6.00 Build 0)  -->
<svg version="1.1" id="Layer_1" xmlns="http://www.w3.org/2000/svg" xmlns:xlink="http://www.w3.org/1999/xlink" x="0px" y="0px"
	 viewBox="0 0 322.9 300.7" style="enable-background:new 0 0 322.9 300.7;" xml:space="preserve">
<g>
	<path d="M307.4,232.5H15.5C7,232.5,0,225.5,0,217V15.5C0,7,7,0,15.5,0h291.9c8.5,0,15.5,7,15.5,15.5V217
		C322.9,225.5,316,232.5,307.4,232.5z M15.5,5C9.7,5,5,9.7,5,15.5V217c0,5.8,4.7,10.5,10.5,10.5h291.9c5.8,0,10.5-4.7,10.5-10.5
		V15.5c0-5.8-4.7-10.5-10.5-10.5H15.5z"/>
	<path d="M307.3,187.4H19.1c-1.4,0-2.5-1.1-2.5-2.5V18c0-1.4,1.1-2.5,2.5-2.5h288.1c1.4,0,2.5,1.1,2.5,2.5v166.9
		C309.8,186.3,308.7,187.4,307.3,187.4z M21.6,182.4h283.1V20.5H21.6V182.4z"/>
	<path d="M163.2,215.5c-5.9,0-10.7-4.8-10.7-10.7s4.8-10.7,10.7-10.7s10.7,4.8,10.7,10.7S169.1,215.5,163.2,215.5z M163.2,199.2
		c-3.1,0-5.7,2.5-5.7,5.7s2.5,5.7,5.7,5.7s5.7-2.5,5.7-5.7S166.3,199.2,163.2,199.2z"/>
	<polygon points="182.6,281.5 177.6,281.5 177.6,232.5 150.3,232.5 150.3,281.5 145.3,281.5 145.3,227.5 182.6,227.5 	"/>
	<path d="M162.7,300.7c-25.1,0-51.2-6.3-51.3-18.3c-0.1-7,9.8-15.5,37.6-18.5l0.5,5c-16.3,1.8-33.2,7.3-33.1,13.5
		c0.1,5.8,18.2,13.7,47.7,13.4c13.1-0.1,25.4-1.9,34.6-5c8-2.7,12.9-6.2,12.9-9.3c0-4.4-10.7-10.3-30.5-12.5l0.6-5
		c16.8,1.9,34.8,7.5,34.9,17.4c0.1,12.2-26.9,19.1-52.4,19.3C163.7,300.7,163.2,300.7,162.7,300.7z"/>
</g>
</svg>
