<?xml version="1.0" encoding="utf-8"?>
<!-- Generator: Adobe Illustrator 20.0.0, SVG Export Plug-In . SVG Version: 6.00 Build 0)  -->
<svg version="1.1" id="Layer_1" xmlns="http://www.w3.org/2000/svg" xmlns:xlink="http://www.w3.org/1999/xlink" x="0px" y="0px"
	 viewBox="0 0 432.8 308.2" style="enable-background:new 0 0 432.8 308.2;" xml:space="preserve">
<g>
	<path d="M357.3,232.5H65.4c-8.5,0-15.5-7-15.5-15.5V15.5C49.9,7,56.9,0,65.4,0h291.9c8.5,0,15.5,7,15.5,15.5V217
		C372.8,225.5,365.9,232.5,357.3,232.5z M65.4,5c-5.8,0-10.5,4.7-10.5,10.5V217c0,5.8,4.7,10.5,10.5,10.5h291.9
		c5.8,0,10.5-4.7,10.5-10.5V15.5c0-5.8-4.7-10.5-10.5-10.5H65.4z"/>
	<path d="M355.4,191.6H67.3c-1.4,0-2.5-1.1-2.5-2.5V23c0-1.4,1.1-2.5,2.5-2.5h288.1c1.4,0,2.5,1.1,2.5,2.5v166.1
		C357.9,190.5,356.8,191.6,355.4,191.6z M69.8,186.6h283.1V25.5H69.8V186.6z"/>
	<g>
		<path d="M2.5,308.2c-0.5,0-1-0.2-1.5-0.5c-1.1-0.8-1.3-2.4-0.5-3.5l48.3-65.1l0.6-1c4.1-6.8,6.3-10.5,14.6-10.5h294.2
			c6.7,0,8,1.4,11.7,6.3c0.9,1.1,1.9,2.5,3.3,4.2l59,65.7c0.9,1,0.8,2.6-0.2,3.5c-1,0.9-2.6,0.8-3.5-0.2l-59-65.8
			c0,0-0.1-0.1-0.1-0.1c-1.4-1.8-2.5-3.2-3.4-4.4c-3.2-4.2-3.3-4.3-7.7-4.3H64c-5.4,0-6.4,1.5-10.3,8.1l-0.7,1.1
			c0,0.1-0.1,0.1-0.1,0.2L4.5,307.2C4,307.8,3.3,308.2,2.5,308.2z"/>
		<path d="M2.5,308.2c-1.4,0-2.5-1.1-2.5-2.5s1.1-2.5,2.5-2.5l427.8-0.2h0c1.4,0,2.5,1.1,2.5,2.5s-1.1,2.5-2.5,2.5L2.5,308.2
			C2.5,308.2,2.5,308.2,2.5,308.2z"/>
	</g>
	<path d="M208.2,218.4c-5.9,0-10.7-4.8-10.7-10.7s4.8-10.7,10.7-10.7s10.7,4.8,10.7,10.7S214.1,218.4,208.2,218.4z M208.2,202.1
		c-3.1,0-5.7,2.5-5.7,5.7s2.5,5.7,5.7,5.7s5.7-2.5,5.7-5.7S211.3,202.1,208.2,202.1z"/>
	<path d="M295.3,287.1H137.8c-1.4,0-2.5-1.1-2.5-2.5s1.1-2.5,2.5-2.5h157.5c1.4,0,2.5,1.1,2.5,2.5S296.7,287.1,295.3,287.1z"/>
</g>
</svg>
