<?xml version="1.0" encoding="utf-8"?>
<!-- Generator: Adobe Illustrator 20.0.0, SVG Export Plug-In . SVG Version: 6.00 Build 0)  -->
<svg version="1.1" id="Layer_1" xmlns="http://www.w3.org/2000/svg" xmlns:xlink="http://www.w3.org/1999/xlink" x="0px" y="0px"
	 viewBox="0 0 501.7 380.4" style="enable-background:new 0 0 501.7 380.4;" xml:space="preserve">
<g>
	<g>
		<path d="M486.2,312.2H194.3c-8.5,0-15.5-7-15.5-15.5V95.2c0-8.5,7-15.5,15.5-15.5h291.9c8.5,0,15.5,7,15.5,15.5v201.5
			C501.7,305.2,494.8,312.2,486.2,312.2z M194.3,84.7c-5.8,0-10.5,4.7-10.5,10.5v201.5c0,5.8,4.7,10.5,10.5,10.5h291.9
			c5.8,0,10.5-4.7,10.5-10.5V95.2c0-5.8-4.7-10.5-10.5-10.5H194.3z"/>
		<path d="M486,267H197.9c-1.4,0-2.5-1.1-2.5-2.5V97.7c0-1.4,1.1-2.5,2.5-2.5H486c1.4,0,2.5,1.1,2.5,2.5v166.9
			C488.5,265.9,487.4,267,486,267z M200.4,262h283.1V100.2H200.4V262z"/>
		<path d="M342,295.2c-5.9,0-10.7-4.8-10.7-10.7s4.8-10.7,10.7-10.7s10.7,4.8,10.7,10.7S347.9,295.2,342,295.2z M342,278.8
			c-3.1,0-5.7,2.5-5.7,5.7s2.5,5.7,5.7,5.7s5.7-2.5,5.7-5.7S345.1,278.8,342,278.8z"/>
		<polygon points="361.4,361.2 356.4,361.2 356.4,312.2 329.1,312.2 329.1,361.2 324.1,361.2 324.1,307.2 361.4,307.2 		"/>
		<path d="M341.4,380.4c-13.1,0-25.3-1.6-34.7-4.6c-10.8-3.4-16.5-8.2-16.5-13.8c-0.1-10.6,20.2-16.6,37.6-18.5l0.5,5
			c-16.3,1.8-33.2,7.3-33.1,13.5c0,3.1,5,6.5,13,9c9.2,2.9,21.5,4.4,34.7,4.3c13.1-0.1,25.4-1.9,34.6-5c8-2.7,12.9-6.2,12.9-9.3
			c0-4.4-10.7-10.3-30.5-12.5l0.6-5c16.8,1.9,34.8,7.5,34.9,17.4c0.1,12.2-26.9,19.1-52.4,19.3C342.4,380.4,341.9,380.4,341.4,380.4
			z"/>
	</g>
	<path d="M140.6,379.8H15.5c-8.5,0-15.5-7-15.5-15.5V15.5C0,7,7,0,15.5,0h125.1c8.5,0,15.5,7,15.5,15.5v348.8
		C156.1,372.9,149.1,379.8,140.6,379.8z M15.5,5C9.7,5,5,9.7,5,15.5v348.8c0,5.8,4.7,10.5,10.5,10.5h125.1c5.8,0,10.5-4.7,10.5-10.5
		V15.5c0-5.8-4.7-10.5-10.5-10.5H15.5z"/>
	<path d="M133.7,70.2H22.9c-1.4,0-2.5-1.1-2.5-2.5v-9.9c0-1.4,1.1-2.5,2.5-2.5h110.9c1.4,0,2.5,1.1,2.5,2.5v9.9
		C136.2,69.1,135.1,70.2,133.7,70.2z M25.4,65.2h105.9v-4.9H25.4V65.2z"/>
	<path d="M133.7,94.1H22.9c-1.4,0-2.5-1.1-2.5-2.5v-9.9c0-1.4,1.1-2.5,2.5-2.5h110.9c1.4,0,2.5,1.1,2.5,2.5v9.9
		C136.2,93,135.1,94.1,133.7,94.1z M25.4,89.1h105.9v-4.9H25.4V89.1z"/>
	<path d="M133.5,118H22.6c-1.4,0-2.5-1.1-2.5-2.5v-9.9c0-1.4,1.1-2.5,2.5-2.5h110.9c1.4,0,2.5,1.1,2.5,2.5v9.9
		C136,116.8,134.8,118,133.5,118z M25.1,113H131v-4.9H25.1V113z"/>
	<path d="M133.5,141.8H22.6c-1.4,0-2.5-1.1-2.5-2.5v-9.9c0-1.4,1.1-2.5,2.5-2.5h110.9c1.4,0,2.5,1.1,2.5,2.5v9.9
		C136,140.7,134.8,141.8,133.5,141.8z M25.1,136.8H131V132H25.1V136.8z"/>
</g>
</svg>
