<?xml version="1.0" encoding="utf-8"?>
<!-- Generator: Adobe Illustrator 20.0.0, SVG Export Plug-In . SVG Version: 6.00 Build 0)  -->
<svg version="1.1" id="Layer_1" xmlns="http://www.w3.org/2000/svg" xmlns:xlink="http://www.w3.org/1999/xlink" x="0px" y="0px"
	 viewBox="0 0 207.7 303" style="enable-background:new 0 0 207.7 303;" xml:space="preserve">
<g>
	<path d="M192.2,303H15.5C7,303,0,296,0,287.5v-272C0,7,7,0,15.5,0h176.7c8.5,0,15.5,7,15.5,15.5v272C207.7,296,200.7,303,192.2,303
		z M15.5,5C9.7,5,5,9.7,5,15.5v272c0,5.8,4.7,10.5,10.5,10.5h176.7c5.8,0,10.5-4.7,10.5-10.5v-272C202.7,9.7,198,5,192.2,5H15.5z"/>
	<path d="M191.9,259.5h-176c-1.4,0-2.5-1.1-2.5-2.5V18c0-1.4,1.1-2.5,2.5-2.5h176c1.4,0,2.5,1.1,2.5,2.5v239
		C194.4,258.3,193.2,259.5,191.9,259.5z M18.3,254.5h171v-234h-171V254.5z"/>
	<path d="M103.8,288.6c-5.9,0-10.7-4.8-10.7-10.7s4.8-10.7,10.7-10.7s10.7,4.8,10.7,10.7S109.7,288.6,103.8,288.6z M103.8,272.3
		c-3.1,0-5.7,2.5-5.7,5.7s2.5,5.7,5.7,5.7s5.7-2.5,5.7-5.7S107,272.3,103.8,272.3z"/>
	<path d="M192.2,303H15.5C7,303,0,296,0,287.5v-272C0,7,7,0,15.5,0h176.7c8.5,0,15.5,7,15.5,15.5v272C207.7,296,200.7,303,192.2,303
		z M15.5,5C9.7,5,5,9.7,5,15.5v272c0,5.8,4.7,10.5,10.5,10.5h176.7c5.8,0,10.5-4.7,10.5-10.5v-272C202.7,9.7,198,5,192.2,5H15.5z"/>
	<path d="M191.9,259.5h-176c-1.4,0-2.5-1.1-2.5-2.5V18c0-1.4,1.1-2.5,2.5-2.5h176c1.4,0,2.5,1.1,2.5,2.5v239
		C194.4,258.3,193.2,259.5,191.9,259.5z M18.3,254.5h171v-234h-171V254.5z"/>
	<path d="M103.8,288.6c-5.9,0-10.7-4.8-10.7-10.7s4.8-10.7,10.7-10.7s10.7,4.8,10.7,10.7S109.7,288.6,103.8,288.6z M103.8,272.3
		c-3.1,0-5.7,2.5-5.7,5.7s2.5,5.7,5.7,5.7s5.7-2.5,5.7-5.7S107,272.3,103.8,272.3z"/>
</g>
</svg>
