<svg xmlns="http://www.w3.org/2000/svg" viewBox="0 0 1500 1500"><style>.st0{fill:#fff}.st1{fill:#00aeef}.st2{fill:#003c71}</style><switch><g><path class="st0" d="M675.2 633.1c-.7-.7-1.9-.7-2.6 0l-39.5 39.5c-.7.7-.7 1.9 0 2.6l39.5 39.5c.7.7 1.9.7 2.6 0l39.5-39.5c.7-.7.7-1.9 0-2.6l-39.5-39.5zM790.8 748.7l-39.5-39.5c-.7-.7-1.9-.7-2.6 0l-39.5 39.5c-.7.7-.7 1.9 0 2.6l39.5 39.5c.1.1.2.2.3.2.2.1.4.2.7.3.6.1 1.2-.1 1.7-.5l39.5-39.5c.5-.5.6-1.1.5-1.7 0-.2-.1-.5-.3-.7-.2 0-.2-.1-.3-.2zM599.1 557c-.7-.7-1.9-.7-2.6 0L557 596.5c-.7.7-.7 1.9 0 2.6l39.5 39.5c.7.7 1.9.7 2.6 0l39.5-39.5c.7-.7.7-1.9 0-2.6L599.1 557zM827.4 785.3c-.7-.7-1.9-.7-2.6 0l-39.5 39.5c-.7.7-.7 1.9 0 2.6l39.5 39.5c.7.7 1.9.7 2.6 0l39.5-39.5c.7-.7.7-1.9 0-2.6l-39.5-39.5zM900.9 861.4l-39.5 39.5c-.7.7-.7 1.9 0 2.6l39.5 39.5c.7.7 1.9.7 2.6 0l39.5-39.5c.7-.7.7-1.9 0-2.6l-39.5-39.5c-.7-.7-1.9-.8-2.6 0zM633.1 824.8c-.7.7-.7 1.9 0 2.6l39.5 39.5c.7.7 1.9.7 2.6 0l39.5-39.5c.7-.7.7-1.9 0-2.6l-39.5-39.5c-.7-.7-1.9-.7-2.6 0l-39.5 39.5z"/><path class="st0" d="M748.7 709.2l-39.5 39.5c-.7.7-.7 1.9 0 2.6l39.5 39.5c.7.7 1.9.7 2.6 0l39.5-39.5c.1-.1.2-.2.2-.3.1-.2.2-.4.3-.7.1-.6-.1-1.2-.5-1.7l-39.5-39.5c-.5-.5-1.1-.6-1.7-.5-.2 0-.5.1-.7.3 0 .2-.1.2-.2.3zM557 900.9c-.7.7-.7 1.9 0 2.6l39.5 39.5c.7.7 1.9.7 2.6 0l39.5-39.5c.7-.7.7-1.9 0-2.6l-39.5-39.5c-.7-.7-1.9-.7-2.6 0L557 900.9zM785.3 672.6c-.7.7-.7 1.9 0 2.6l39.5 39.5c.7.7 1.9.7 2.6 0l39.5-39.5c.7-.7.7-1.9 0-2.6l-39.5-39.5c-.7-.7-1.9-.7-2.6 0l-39.5 39.5zM861.4 599.1l39.5 39.5c.7.7 1.9.7 2.6 0l39.5-39.5c.7-.7.7-1.9 0-2.6L903.5 557c-.7-.7-1.9-.7-2.6 0l-39.5 39.5c-.7.7-.8 1.9 0 2.6z"/><path class="st0" d="M750 449c40.7 0 80.1 8 117.1 23.6 35.8 15.2 68 36.9 95.7 64.5 27.7 27.7 49.4 59.9 64.5 95.7 15.7 37.1 23.6 76.5 23.6 117.1s-8 80.1-23.6 117.1c-15.2 35.8-36.9 68-64.5 95.7-27.7 27.7-59.9 49.4-95.7 64.5-37 15.8-76.4 23.8-117.1 23.8s-80.1-8-117.1-23.6c-35.8-15.2-68-36.9-95.7-64.5-27.7-27.7-49.4-59.9-64.5-95.7C457 830.1 449 790.7 449 750s8-80.1 23.6-117.1c15.2-35.8 36.9-68 64.5-95.7 27.7-27.7 59.9-49.4 95.7-64.5C669.9 457 709.3 449 750 449m0-48c-192.7 0-349 156.3-349 349s156.3 349 349 349 349-156.3 349-349-156.3-349-349-349z"/><path class="st0" d="M749.6 349c.8 0 1.5.3 2.1.9l59.5 59.5 59.5 59.5c.6.6.9 1.4.9 2.1 0 .8-.3 1.5-.9 2.1l-19.1 19.1-19.1 19.1c-.6.6-1.4.9-2.1.9s-1.5-.3-2.1-.9l-38.2-38.2-38.2-38.2c-.6-.6-1.4-.9-2.1-.9s-1.5.3-2.1.9l-37.8 37.8-37.8 37.8c-.6.6-1.4.9-2.1.9s-1.5-.3-2.1-.9l-19.1-19.1-19.1-19.1c-.6-.6-.9-1.4-.9-2.1 0-.8.3-1.5.9-2.1l59-59 59-59c.3-.8 1.1-1.1 1.9-1.1m0-48c-13.6 0-26.4 5.3-36.1 15l-59 59-59 59c-9.6 9.6-14.9 22.4-14.9 36.1 0 13.6 5.3 26.4 14.9 36l19.1 19.1 19.1 19.1c9.6 9.6 22.4 14.9 36.1 14.9 13.6 0 26.4-5.3 36.1-15l37.8-37.8 6-6 6.4 6.4 38.2 38.2c9.6 9.6 22.4 14.9 36.1 14.9 13.6 0 26.4-5.3 36.1-14.9l19.1-19.1 19.1-19.1c9.6-9.6 14.9-22.4 14.9-36.1s-5.3-26.4-14.9-36l-59.5-59.5-59.5-59.5c-9.7-9.4-22.5-14.7-36.1-14.7zM669.7 987.9c.8 0 1.5.3 2.1.9L710 1027l38.2 38.2c.6.6 1.4.9 2.1.9s1.5-.3 2.1-.9l37.8-37.8 37.8-37.8c.6-.6 1.4-.9 2.1-.9s1.5.3 2.1.9l19.1 19.1 19.1 19.1c.6.6.9 1.4.9 2.1s-.3 1.5-.9 2.1l-59 59-59 59c-.6.6-1.4.9-2.1.9s-1.5-.3-2.1-.9l-59.5-59.5-59.5-59.5c-.6-.6-.9-1.4-.9-2.1s.3-1.5.9-2.1l19.1-19.1 19.1-19.1c.8-.4 1.5-.7 2.3-.7m0-48c-13.6 0-26.4 5.3-36.1 14.9L614.5 974l-19.1 19.1c-9.6 9.6-14.9 22.4-14.9 36.1 0 13.6 5.3 26.4 14.9 36l59.5 59.5 59.5 59.5c9.6 9.6 22.4 14.9 36.1 14.9 13.6 0 26.4-5.3 36.1-14.9l59-59 59-59c9.6-9.6 14.9-22.4 14.9-36.1 0-13.6-5.3-26.4-14.9-36.1l-19.1-19.1-19.1-19.1c-9.6-9.6-22.4-14.9-36.1-14.9-13.6 0-26.4 5.3-36.1 15l-37.8 37.8-6 6-6.4-6.4-38.2-38.2c-9.7-9.9-22.5-15.2-36.1-15.2zM470.9 628.5c.8 0 1.5.3 2.1.9l19.1 19.1 19.1 19.1c.6.6.9 1.4.9 2.1s-.3 1.5-.9 2.1L473 710l-38.2 38.2c-.6.6-.9 1.4-.9 2.1s.3 1.5.9 2.1l37.8 37.8 37.8 37.8c.6.6.9 1.4.9 2.1s-.3 1.5-.9 2.1l-19.1 19.1-19.1 19.1c-.6.6-1.4.9-2.1.9-.8 0-1.5-.3-2.1-.9l-59-59-59-59c-.6-.6-.9-1.4-.9-2.1s.3-1.5.9-2.1l59.5-59.5 59.5-59.5c.3-.4 1.1-.7 1.9-.7m0-48c-13.6 0-26.4 5.3-36.1 14.9l-59.5 59.5-59.5 59.5c-9.6 9.6-14.9 22.4-14.9 36.1 0 13.6 5.3 26.4 15 36.1l59 59 59 59c9.6 9.6 22.4 14.9 36.1 14.9 13.6 0 26.4-5.3 36-14.9l19.1-19.1 19.1-19.1c9.6-9.6 14.9-22.4 14.9-36.1 0-13.6-5.3-26.4-14.9-36.1l-37.8-37.8-6-6 6.4-6.4 38.2-38.2c9.6-9.6 14.9-22.4 14.9-36.1 0-13.6-5.3-26.4-14.9-36.1l-19-19.1-19.1-19.1c-9.6-9.6-22.4-14.9-36-14.9zM1030 628.5c.8 0 1.5.3 2.1.9l59 59 59 59c.6.6.9 1.4.9 2.1s-.3 1.5-.9 2.1l-59.5 59.5-59.5 59.5c-.6.6-1.4.9-2.1.9s-1.5-.3-2.1-.9l-19.1-19.1-19.1-19.1c-.6-.6-.9-1.4-.9-2.1s.3-1.5.9-2.1l38.2-38.2 38.2-38.2c.6-.6.9-1.4.9-2.1s-.3-1.5-.9-2.1l-37.8-37.8-37.8-37.8c-.6-.6-.9-1.4-.9-2.1s.3-1.5.9-2.1l19.1-19.1 19.1-19.1c.7-.8 1.5-1.1 2.3-1.1m0-48c-13.6 0-26.4 5.3-36.1 14.9l-19.1 19.1-19.1 19.1c-9.6 9.6-14.9 22.4-14.9 36.1 0 13.6 5.3 26.4 15 36.1l37.8 37.8 6 6-6.4 6.4-38.2 38.2c-9.6 9.6-14.9 22.4-14.9 36.1 0 13.6 5.3 26.4 14.9 36.1l19.1 19.1 19.1 19.1c9.6 9.6 22.4 14.9 36.1 14.9 13.6 0 26.4-5.3 36-14.9l59.5-59.5 59.5-59.5c9.6-9.6 14.9-22.4 14.9-36.1 0-13.6-5.3-26.4-15-36.1l-59-59-59-59c-9.8-9.6-22.6-14.9-36.2-14.9z"/><path class="st1" d="M648.5 491.2l19.1 19.1c.6.6 1.4.9 2.1.9s1.5-.3 2.1-.9l37.8-37.8 37.8-37.8c.6-.6 1.4-.9 2.1-.9s1.5.3 2.1.9l38.2 38.2 38.2 38.2c.6.6 1.4.9 2.1.9s1.5-.3 2.1-.9l19.1-19.1 19.1-19.1c.6-.6.9-1.4.9-2.1s-.3-1.5-.9-2.1l-59.5-59.5-59.5-59.5c-.6-.6-1.4-.9-2.1-.9s-1.5.3-2.1.9l-59 59-59 59c-.6.6-.9 1.4-.9 2.1s.3 1.5.9 2.1l19.3 19.3zM779.8 614.5c0-1-.8-1.9-1.9-1.9h-55.8c-1 0-1.9.8-1.9 1.9v55.8c0 1 .8 1.9 1.9 1.9h55.8c1 0 1.9-.8 1.9-1.9v-55.8z"/><path class="st2" d="M779.8 777.9v-55.8c0-1-.8-1.9-1.9-1.9h-55.8c-1 0-1.9.8-1.9 1.9V778.3c0 .2.1.5.3.7.3.5.9.8 1.5.8h55.8c.6 0 1.2-.3 1.5-.8.1-.2.2-.4.3-.7.2-.2.2-.3.2-.4z"/><path class="st1" d="M779.8 506.8c0-1-.8-1.9-1.9-1.9h-55.8c-1 0-1.9.8-1.9 1.9v55.8c0 1 .8 1.9 1.9 1.9h55.8c1 0 1.9-.8 1.9-1.9v-55.8zM779.8 829.7c0-1-.8-1.9-1.9-1.9h-55.8c-1 0-1.9.8-1.9 1.9v55.8c0 1 .8 1.9 1.9 1.9h55.8c1 0 1.9-.8 1.9-1.9v-55.8zM777.9 935.4h-55.8c-1 0-1.9.8-1.9 1.9v55.8c0 1 .8 1.9 1.9 1.9h55.8c1 0 1.9-.8 1.9-1.9v-55.8c0-1-.9-1.9-1.9-1.9z"/><path class="st1" d="M851.5 1008.8l-19.1-19.1c-.6-.6-1.4-.9-2.1-.9s-1.5.3-2.1.9l-37.8 37.8-37.8 37.8c-.6.6-1.4.9-2.1.9s-1.5-.3-2.1-.9l-38.2-38.2-38.2-38.2c-.6-.6-1.4-.9-2.1-.9s-1.5.3-2.1.9l-19.1 19.1-19.1 19.1c-.6.6-.9 1.4-.9 2.1s.3 1.5.9 2.1l59.5 59.5 59.5 59.5c.6.6 1.4.9 2.1.9s1.5-.3 2.1-.9l59-59 59-59c.6-.6.9-1.4.9-2.1s-.3-1.5-.9-2.1l-19.3-19.3zM491.2 851.5l19.1-19.1c.6-.6.9-1.4.9-2.1s-.3-1.5-.9-2.1l-37.8-37.8-37.8-37.8c-.6-.6-.9-1.4-.9-2.1s.3-1.5.9-2.1l38.2-38.2 38.2-38.2c.6-.6.9-1.4.9-2.1s-.3-1.5-.9-2.1L492 648.7l-19-19.3c-.6-.6-1.4-.9-2.1-.9s-1.5.3-2.1.9l-59.5 59.5-59.5 59.5c-.6.6-.9 1.4-.9 2.1s.3 1.5.9 2.1l59 59 59 59c.6.6 1.4.9 2.1.9s1.5-.3 2.1-.9l19.2-19.1zM614.5 720.2c-1 0-1.9.8-1.9 1.9v55.8c0 1 .8 1.9 1.9 1.9h55.8c1 0 1.9-.8 1.9-1.9v-55.8c0-1-.8-1.9-1.9-1.9h-55.8zM777.9 720.2h-55.8c-1 0-1.9.8-1.9 1.9v55.8c0 1 .8 1.9 1.9 1.9H778.3c.2 0 .5-.1.7-.3.5-.3.8-.9.8-1.5v-55.8c0-.6-.3-1.2-.8-1.5-.2-.1-.4-.2-.7-.3-.2-.2-.3-.2-.4-.2z"/><path class="st1" d="M506.8 720.2c-1 0-1.9.8-1.9 1.9v55.8c0 1 .8 1.9 1.9 1.9h55.8c1 0 1.9-.8 1.9-1.9v-55.8c0-1-.8-1.9-1.9-1.9h-55.8zM829.7 720.2c-1 0-1.9.8-1.9 1.9v55.8c0 1 .8 1.9 1.9 1.9h55.8c1 0 1.9-.8 1.9-1.9v-55.8c0-1-.8-1.9-1.9-1.9h-55.8zM935.4 722.1v55.8c0 1 .8 1.9 1.9 1.9h55.8c1 0 1.9-.8 1.9-1.9v-55.8c0-1-.8-1.9-1.9-1.9h-55.8c-1 0-1.9.9-1.9 1.9z"/><path class="st1" d="M1008.8 648.5l-19.1 19.1c-.6.6-.9 1.4-.9 2.1s.3 1.5.9 2.1l37.8 37.8 37.8 37.8c.6.6.9 1.4.9 2.1s-.3 1.5-.9 2.1l-38.2 38.2-38.2 38.2c-.6.6-.9 1.4-.9 2.1 0 .8.3 1.5.9 2.1l19.1 19.1 19.1 19.1c.6.6 1.4.9 2.1.9s1.5-.3 2.1-.9l59.5-59.5 59.5-59.5c.6-.6.9-1.4.9-2.1s-.3-1.5-.9-2.1l-59-59-59-59c-.6-.6-1.4-.9-2.1-.9s-1.5.3-2.1.9l-19.3 19.3zM670.3 612.6h-55.8c-1 0-1.9.8-1.9 1.9v55.8c0 1 .8 1.9 1.9 1.9H670.7c.2 0 .5-.1.7-.3.5-.3.8-.9.8-1.5v-55.8c0-.6-.3-1.2-.8-1.5-.2-.1-.4-.2-.7-.3-.1-.2-.3-.2-.4-.2z"/><path class="st0" d="M562.7 505h-55.8c-1 0-1.9.8-1.9 1.9v55.8c0 1 .8 1.9 1.9 1.9H563.1c.2 0 .5-.1.7-.3.5-.3.8-.9.8-1.5V507c0-.6-.3-1.2-.8-1.5-.2-.1-.4-.2-.7-.3-.2-.2-.3-.2-.4-.2zM993.1 935.5h-55.8c-1 0-1.9.8-1.9 1.9v55.8c0 1 .8 1.9 1.9 1.9H993.5c.2 0 .5-.1.7-.3.5-.3.8-.9.8-1.5v-55.8c0-.6-.3-1.2-.8-1.5-.2-.1-.4-.2-.7-.3-.1-.2-.2-.2-.4-.2z"/><path class="st1" d="M885.6 827.8h-55.8c-1 0-1.9.8-1.9 1.9v55.8c0 1 .8 1.9 1.9 1.9H886c.2 0 .5-.1.7-.3.5-.3.8-.9.8-1.5v-55.8c0-.6-.3-1.2-.8-1.5-.2-.1-.4-.2-.7-.3-.2-.1-.3-.2-.4-.2zM612.6 829.7v55.8c0 1 .8 1.9 1.9 1.9h55.8c1 0 1.9-.8 1.9-1.9v-55.8-.4c0-.2-.1-.5-.3-.7-.3-.5-.9-.8-1.5-.8h-55.8c-.6 0-1.2.3-1.5.8-.1.2-.2.4-.3.7-.2.1-.2.2-.2.4z"/><path class="st0" d="M505 937.3v55.8c0 1 .8 1.9 1.9 1.9h55.8c1 0 1.9-.8 1.9-1.9v-55.8-.4c0-.2-.1-.5-.3-.7-.3-.5-.9-.8-1.5-.8H507c-.6 0-1.2.3-1.5.8-.1.2-.2.4-.3.7-.2.2-.2.3-.2.4z"/><path class="st1" d="M935.5 506.8v55.8c0 1 .8 1.9 1.9 1.9h55.8c1 0 1.9-.8 1.9-1.9v-55.8-.4c0-.2-.1-.5-.3-.7-.3-.5-.9-.8-1.5-.8h-55.8c-.6 0-1.2.3-1.5.8-.1.2-.2.4-.3.7-.2.2-.2.3-.2.4zM827.8 614.4v55.8c0 1 .8 1.9 1.9 1.9h55.8c1 0 1.9-.8 1.9-1.9v-55.8-.4c0-.2-.1-.5-.3-.7-.3-.5-.9-.8-1.5-.8h-55.8c-.6 0-1.2.3-1.5.8-.1.2-.2.4-.3.7-.1.2-.2.3-.2.4z"/><g><path class="st2" d="M1214.5 498.5h-66c-1.7 0-3 1.3-3 3v66c0 1.7 1.3 3 3 3h66c1.7 0 3-1.3 3-3v-66c0-1.7-1.4-3-3-3zM1068.9 428.6h-66c-.8 0-1.5-.7-1.5-1.5v-65.5c0-1.5-1.3-2.9-3-2.9h-66c-1.7 0-3 1.3-3 3v66c0 1.7 1.3 3 3 3h66c.8 0 1.5.7 1.5 1.5V497c0 .8-.7 1.5-1.5 1.5h-66c-1.7 0-3 1.3-3 3v66c0 1.7 1.3 3 3 3h66c1.7 0 3-1.3 3-2.9v-65.5c0-.8.7-1.5 1.5-1.5h66c1.7 0 3-1.3 3-3v-66c0-1.7-1.3-3-3-3z"/></g></g></switch></svg>
