<svg id="Layer_1" xmlns="http://www.w3.org/2000/svg" viewBox="0 0 1500 1500"><style>.st0{fill:#003c71}.st1{fill:#00aeef}.st2{fill:#fff}</style><switch><g><path class="st0" d="M542.6 628.6H172c-2.3 0-3.8 2.5-2.6 4.5l15 54c.5.9 1.5 1.5 2.6 1.5h321.7c8.3-21.9 19.7-42 33.9-60zM421.5 883.4c-1.4 6.9-2.4 14-2.7 21.2h5.4c2.1 0 3.5-2 2.8-4-1.9-5.7-3.8-11.4-5.5-17.2zm59.8-86.8h50.5c1.7 0 3.1-1.4 3-3.1-.3-5.6-.5-11.3-.6-17-19.2 3-37.1 10-52.9 20.1zm14.8-60H199.6c-2.3 0-3.8 2.5-2.6 4.5l13.4 54c.5.9 1.5 1.5 2.6 1.5h197.8c1.9-2.4 3.9-4.8 6-7.2 21.5-24.4 48.9-42.5 79.3-52.8zM222.9 849.1l13.4 54c.5.9 1.5 1.5 2.6 1.5h131.9c.8-20.7 5-41 12.4-60H225.5c-2.3 0-3.7 2.5-2.6 4.5z"/><path class="st1" d="M1207.8 718.3c-2.1-1-3.5-3.2-3.4-5.5V709c0-130.2-105.9-236.1-236.1-236.1-84.2 0-162.3 45.6-204.2 117.7-1.3 2.2-3.9 3.4-6.4 2.9-18.5-3.8-37.6-4.6-56.8-2.4-75.9 8.7-138.1 64.6-154.6 139.2-2.9 13.2-4.4 26.6-4.4 39.9 0 3-2.1 5.6-5.1 6-66.6 9-118.1 66.2-118.1 135.2 0 75.2 61.2 136.4 136.4 136.4h574.3c97.3 0 176.5-77.9 176.5-173.7-.1-67.4-38-126.8-98.1-155.8zm-78.5 281.4H555c-48.7 0-88.4-39.7-88.4-88.4 0-48.8 43.4-90.8 92.1-90.8 12.1-.2 22.3.7 29.8 2.3 10.7 2.3 11.9 1.9 7.6-11.5-2-6.1-3.8-13.8-5.4-26-1.8-14.9-1-29.9 2.3-44.8 12.1-54.6 57.6-95.6 113.2-102 39-2.7 57.8 6 58.5 6.2 0 0 5.2 1.2 18.9 8.4 2.3 1 4.6.9 5.4-1.8 1.7-5.2 5.2-15 8.9-22.5 30.9-65.7 97.7-108.1 170.2-108.1 103.7 0 188.1 84.4 188.1 188.1.3 9.2-3.2 32.5-3.9 37.2-.4 2.4.2 4.3 2.8 4.8 3 .6 13.7 2.9 19.3 5.3 50.5 18.5 83.2 64.7 83.2 117.7.2 69.5-57.5 125.9-128.3 125.9z"/><path class="st0" d="M1022.2 836.9H905.9c-4.2 0-7.1-4.1-5.6-8l69.3-192.3c1.4-3.9-1.5-8-5.6-8H857.2c-2.5 0-4.8 1.6-5.6 4l-95.8 265.3c-1.4 3.9 1.5 8 5.6 8h98.2c4.2 0 7.1 4.2 5.6 8.1l-85.9 232.7c-2.4 6.4 6.2 11.2 10.4 5.8L1027 846.6c3-3.9.2-9.7-4.8-9.7z" id="XMLID_17_"/><path class="st2" d="M963.8 628.6c4.2 0 7.1 4.1 5.6 8l-69.3 192.3c-1.4 3.9 1.5 8 5.6 8H1022c5 0 7.8 5.7 4.7 9.7l-237.3 305.9c-1.3 1.7-3 2.4-4.6 2.4-3.8 0-7.4-3.7-5.7-8.1L865.2 914c1.4-3.9-1.5-8.1-5.6-8.1h-98.2c-4.2 0-7.1-4.1-5.6-8l95.8-265.3c.9-2.4 3.1-4 5.6-4h106.6m0-48H857.2c-22.7 0-43.1 14.3-50.8 35.7l-95.8 265.3c-6 16.5-3.5 35 6.6 49.4 10.1 14.4 26.6 23 44.2 23h38l-65 176.2c-6.1 16.6-3.8 35.1 6.3 49.5 10.1 14.6 26.8 23.2 44.5 23.2 16.7 0 32.2-7.6 42.6-20.9l237.1-306c6.5-8.3 10.3-18.3 11.2-28.7.8-9.7-1.1-19.4-5.3-28.1-4.3-8.7-10.8-16.2-19-21.5-8.8-5.7-19-8.8-29.5-8.8h-56.6l49-136c6-16.5 3.5-35-6.6-49.3-10.2-14.4-26.7-23-44.3-23z" id="XMLID_16_"/></g></switch></svg>