<svg id="Layer_1" xmlns="http://www.w3.org/2000/svg" viewBox="0 0 1500 1500"><style>.st0{fill:#00aeef}.st1{fill:#003c71}</style><switch><g><path class="st0" d="M1093.5 445.2l-342.2-85.5c-1-.2-2-.2-2.9 0l-342.2 85.5c-2.7.7-4.5 3.1-4.5 5.8v327.8c0 35.2 9.1 69.8 26.2 100.1 38.8 68.6 124.7 166.7 312.9 244.4l6.9 2.8c1.5.6 3.1.6 4.6 0l6.9-2.8c187.9-77.6 273.8-175.7 312.6-244.4 17.2-30.3 26.2-64.9 26.2-100.1V451c0-2.8-1.9-5.2-4.5-5.8zM1050 778.8c0 26.9-6.6 53.5-20 76.4-67.7 116.3-193.8 182.4-278.8 219.3-.8.3-1.6.3-2.4 0-81.7-34.7-214.4-105.1-279.2-219.3-13.1-23.1-20-49.5-20-76.4V486.1c0-1.4.9-2.6 2.3-2.9L749.1 409c.5-.1 1-.1 1.5 0l297.2 74.3c1.3.3 2.3 1.5 2.3 2.9v292.6z"/><path class="st1" d="M704.8 815h90c1.7 0 3-1.3 3-3V506c0-1.7-1.3-3-3-3h-90c-1.7 0-3 1.3-3 3v306c0 1.7 1.4 3 3 3zM795 863h-90c-1.6 0-3 1.4-3 3v90c0 1.7 1.4 3 3 3h90c1.6 0 3-1.3 3-3v-90c0-1.6-1.4-3-3-3z"/></g></switch></svg>