<svg xmlns="http://www.w3.org/2000/svg" viewBox="0 0 432.8 308.2"><path d="M357.3 232.5H65.4c-8.5 0-15.5-7-15.5-15.5V15.5C49.9 7 56.9 0 65.4 0h291.9c8.5 0 15.5 7 15.5 15.5V217c0 8.5-6.9 15.5-15.5 15.5zM65.4 5c-5.8 0-10.5 4.7-10.5 10.5V217c0 5.8 4.7 10.5 10.5 10.5h291.9c5.8 0 10.5-4.7 10.5-10.5V15.5c0-5.8-4.7-10.5-10.5-10.5H65.4z"/><path d="M355.4 191.6H67.3c-1.4 0-2.5-1.1-2.5-2.5V23c0-1.4 1.1-2.5 2.5-2.5h288.1c1.4 0 2.5 1.1 2.5 2.5v166.1c0 1.4-1.1 2.5-2.5 2.5zm-285.6-5h283.1V25.5H69.8v161.1zM2.5 308.2c-.5 0-1-.2-1.5-.5-1.1-.8-1.3-2.4-.5-3.5l48.3-65.1.6-1c4.1-6.8 6.3-10.5 14.6-10.5h294.2c6.7 0 8 1.4 11.7 6.3.9 1.1 1.9 2.5 3.3 4.2l59 65.7c.9 1 .8 2.6-.2 3.5-1 .9-2.6.8-3.5-.2l-59-65.8-.1-.1c-1.4-1.8-2.5-3.2-3.4-4.4-3.2-4.2-3.3-4.3-7.7-4.3H64c-5.4 0-6.4 1.5-10.3 8.1l-.7 1.1c0 .1-.1.1-.1.2L4.5 307.2c-.5.6-1.2 1-2 1z"/><path d="M2.5 308.2c-1.4 0-2.5-1.1-2.5-2.5s1.1-2.5 2.5-2.5l427.8-.2c1.4 0 2.5 1.1 2.5 2.5s-1.1 2.5-2.5 2.5l-427.8.2zM208.2 218.4c-5.9 0-10.7-4.8-10.7-10.7s4.8-10.7 10.7-10.7 10.7 4.8 10.7 10.7-4.8 10.7-10.7 10.7zm0-16.3c-3.1 0-5.7 2.5-5.7 5.7s2.5 5.7 5.7 5.7 5.7-2.5 5.7-5.7-2.6-5.7-5.7-5.7zM295.3 287.1H137.8c-1.4 0-2.5-1.1-2.5-2.5s1.1-2.5 2.5-2.5h157.5c1.4 0 2.5 1.1 2.5 2.5s-1.1 2.5-2.5 2.5z"/></svg>