<svg xmlns="http://www.w3.org/2000/svg" viewBox="0 0 207.7 303"><path d="M192.2 303H15.5C7 303 0 296 0 287.5v-272C0 7 7 0 15.5 0h176.7c8.5 0 15.5 7 15.5 15.5v272c0 8.5-7 15.5-15.5 15.5zM15.5 5C9.7 5 5 9.7 5 15.5v272c0 5.8 4.7 10.5 10.5 10.5h176.7c5.8 0 10.5-4.7 10.5-10.5v-272C202.7 9.7 198 5 192.2 5H15.5z"/><path d="M191.9 259.5h-176c-1.4 0-2.5-1.1-2.5-2.5V18c0-1.4 1.1-2.5 2.5-2.5h176c1.4 0 2.5 1.1 2.5 2.5v239c0 1.3-1.2 2.5-2.5 2.5zm-173.6-5h171v-234h-171v234zM103.8 288.6c-5.9 0-10.7-4.8-10.7-10.7s4.8-10.7 10.7-10.7 10.7 4.8 10.7 10.7-4.8 10.7-10.7 10.7zm0-16.3c-3.1 0-5.7 2.5-5.7 5.7s2.5 5.7 5.7 5.7 5.7-2.5 5.7-5.7-2.5-5.7-5.7-5.7z"/><path d="M192.2 303H15.5C7 303 0 296 0 287.5v-272C0 7 7 0 15.5 0h176.7c8.5 0 15.5 7 15.5 15.5v272c0 8.5-7 15.5-15.5 15.5zM15.5 5C9.7 5 5 9.7 5 15.5v272c0 5.8 4.7 10.5 10.5 10.5h176.7c5.8 0 10.5-4.7 10.5-10.5v-272C202.7 9.7 198 5 192.2 5H15.5z"/><path d="M191.9 259.5h-176c-1.4 0-2.5-1.1-2.5-2.5V18c0-1.4 1.1-2.5 2.5-2.5h176c1.4 0 2.5 1.1 2.5 2.5v239c0 1.3-1.2 2.5-2.5 2.5zm-173.6-5h171v-234h-171v234zM103.8 288.6c-5.9 0-10.7-4.8-10.7-10.7s4.8-10.7 10.7-10.7 10.7 4.8 10.7 10.7-4.8 10.7-10.7 10.7zm0-16.3c-3.1 0-5.7 2.5-5.7 5.7s2.5 5.7 5.7 5.7 5.7-2.5 5.7-5.7-2.5-5.7-5.7-5.7z"/></svg>