<svg xmlns="http://www.w3.org/2000/svg" viewBox="0 0 14.7 22.6"><path d="M14.5 5.1l-1 .3c.7 2.5-.4 5.4-2.7 7.1-.5-1.4-1.1-3-1.9-4.7.9-.8 1.5-2 1.5-3.3C10.4 2 8.4 0 5.9 0S1.5 2 1.5 4.4c0 1.3.6 2.6 1.6 3.4C-1.9 18.2.5 22.4.6 22.6l.9-.5s-1.4-2.6.4-8.5c1.3.9 2.8 1.4 4.4 1.4 1.3 0 2.6-.3 3.9-1 1.6 5.6.3 8.1.3 8.1l.4.3.4.3c.1-.1 1.6-2.8-.2-9.1 2.8-2 4.2-5.5 3.4-8.5zm-12-.7C2.5 2.5 4.1 1 5.9 1s3.4 1.5 3.4 3.4-1.5 3.5-3.4 3.5c-.6 0-1.3-.2-1.9-.6-.9-.7-1.5-1.7-1.5-2.9zm-.2 8.2c.4-1.3 1-2.6 1.7-4.2.6.3 1.3.5 2 .5s1.4-.2 2-.5c.8 1.8 1.5 3.3 1.9 4.7-2.6 1.4-5.6 1.2-7.6-.5z"/></svg>