<svg xmlns="http://www.w3.org/2000/svg" viewBox="0 0 322.9 300.7"><path d="M307.4 232.5H15.5C7 232.5 0 225.5 0 217V15.5C0 7 7 0 15.5 0h291.9c8.5 0 15.5 7 15.5 15.5V217c0 8.5-6.9 15.5-15.5 15.5zM15.5 5C9.7 5 5 9.7 5 15.5V217c0 5.8 4.7 10.5 10.5 10.5h291.9c5.8 0 10.5-4.7 10.5-10.5V15.5c0-5.8-4.7-10.5-10.5-10.5H15.5z"/><path d="M307.3 187.4H19.1c-1.4 0-2.5-1.1-2.5-2.5V18c0-1.4 1.1-2.5 2.5-2.5h288.1c1.4 0 2.5 1.1 2.5 2.5v166.9c.1 1.4-1 2.5-2.4 2.5zm-285.7-5h283.1V20.5H21.6v161.9zM163.2 215.5c-5.9 0-10.7-4.8-10.7-10.7s4.8-10.7 10.7-10.7 10.7 4.8 10.7 10.7-4.8 10.7-10.7 10.7zm0-16.3c-3.1 0-5.7 2.5-5.7 5.7s2.5 5.7 5.7 5.7 5.7-2.5 5.7-5.7-2.6-5.7-5.7-5.7zM182.6 281.5h-5v-49h-27.3v49h-5v-54h37.3z"/><path d="M162.7 300.7c-25.1 0-51.2-6.3-51.3-18.3-.1-7 9.8-15.5 37.6-18.5l.5 5c-16.3 1.8-33.2 7.3-33.1 13.5.1 5.8 18.2 13.7 47.7 13.4 13.1-.1 25.4-1.9 34.6-5 8-2.7 12.9-6.2 12.9-9.3 0-4.4-10.7-10.3-30.5-12.5l.6-5c16.8 1.9 34.8 7.5 34.9 17.4.1 12.2-26.9 19.1-52.4 19.3h-1.5z"/></svg>