<svg xmlns="http://www.w3.org/2000/svg" viewBox="0 0 501.7 380.4"><path d="M486.2 312.2H194.3c-8.5 0-15.5-7-15.5-15.5V95.2c0-8.5 7-15.5 15.5-15.5h291.9c8.5 0 15.5 7 15.5 15.5v201.5c0 8.5-6.9 15.5-15.5 15.5zM194.3 84.7c-5.8 0-10.5 4.7-10.5 10.5v201.5c0 5.8 4.7 10.5 10.5 10.5h291.9c5.8 0 10.5-4.7 10.5-10.5V95.2c0-5.8-4.7-10.5-10.5-10.5H194.3z"/><path d="M486 267H197.9c-1.4 0-2.5-1.1-2.5-2.5V97.7c0-1.4 1.1-2.5 2.5-2.5H486c1.4 0 2.5 1.1 2.5 2.5v166.9c0 1.3-1.1 2.4-2.5 2.4zm-285.6-5h283.1V100.2H200.4V262zM342 295.2c-5.9 0-10.7-4.8-10.7-10.7s4.8-10.7 10.7-10.7 10.7 4.8 10.7 10.7-4.8 10.7-10.7 10.7zm0-16.4c-3.1 0-5.7 2.5-5.7 5.7s2.5 5.7 5.7 5.7 5.7-2.5 5.7-5.7-2.6-5.7-5.7-5.7zM361.4 361.2h-5v-49h-27.3v49h-5v-54h37.3z"/><path d="M341.4 380.4c-13.1 0-25.3-1.6-34.7-4.6-10.8-3.4-16.5-8.2-16.5-13.8-.1-10.6 20.2-16.6 37.6-18.5l.5 5c-16.3 1.8-33.2 7.3-33.1 13.5 0 3.1 5 6.5 13 9 9.2 2.9 21.5 4.4 34.7 4.3 13.1-.1 25.4-1.9 34.6-5 8-2.7 12.9-6.2 12.9-9.3 0-4.4-10.7-10.3-30.5-12.5l.6-5c16.8 1.9 34.8 7.5 34.9 17.4.1 12.2-26.9 19.1-52.4 19.3-.6.2-1.1.2-1.6.2zM140.6 379.8H15.5c-8.5 0-15.5-7-15.5-15.5V15.5C0 7 7 0 15.5 0h125.1c8.5 0 15.5 7 15.5 15.5v348.8c0 8.6-7 15.5-15.5 15.5zM15.5 5C9.7 5 5 9.7 5 15.5v348.8c0 5.8 4.7 10.5 10.5 10.5h125.1c5.8 0 10.5-4.7 10.5-10.5V15.5c0-5.8-4.7-10.5-10.5-10.5H15.5z"/><path d="M133.7 70.2H22.9c-1.4 0-2.5-1.1-2.5-2.5v-9.9c0-1.4 1.1-2.5 2.5-2.5h110.9c1.4 0 2.5 1.1 2.5 2.5v9.9c-.1 1.4-1.2 2.5-2.6 2.5zm-108.3-5h105.9v-4.9H25.4v4.9zM133.7 94.1H22.9c-1.4 0-2.5-1.1-2.5-2.5v-9.9c0-1.4 1.1-2.5 2.5-2.5h110.9c1.4 0 2.5 1.1 2.5 2.5v9.9c-.1 1.4-1.2 2.5-2.6 2.5zm-108.3-5h105.9v-4.9H25.4v4.9zM133.5 118H22.6c-1.4 0-2.5-1.1-2.5-2.5v-9.9c0-1.4 1.1-2.5 2.5-2.5h110.9c1.4 0 2.5 1.1 2.5 2.5v9.9c0 1.3-1.2 2.5-2.5 2.5zm-108.4-5H131v-4.9H25.1v4.9zM133.5 141.8H22.6c-1.4 0-2.5-1.1-2.5-2.5v-9.9c0-1.4 1.1-2.5 2.5-2.5h110.9c1.4 0 2.5 1.1 2.5 2.5v9.9c0 1.4-1.2 2.5-2.5 2.5zm-108.4-5H131V132H25.1v4.8z"/></svg>